<?xml version="1.0" standalone="no"?>
<!DOCTYPE svg PUBLIC "-//W3C//DTD SVG 20010904//EN"
 "http://www.w3.org/TR/2001/REC-SVG-20010904/DTD/svg10.dtd">
<svg version="1.0" xmlns="http://www.w3.org/2000/svg"
 width="2000.000000pt" height="2000.000000pt" viewBox="0 0 2000.000000 2000.000000"
 preserveAspectRatio="xMidYMid meet">
<metadata>
Created by potrace 1.16, written by Peter Selinger 2001-2019
</metadata>
<g transform="translate(0.000000,2000.000000) scale(0.100000,-0.100000)"
fill="#000000" stroke="none">
<path d="M3480 13145 l0 -3524 103 106 c119 124 183 191 577 608 162 171 409
432 550 580 332 349 2734 2881 3435 3620 297 313 839 885 1204 1270 365 385
700 737 745 783 l81 82 -3348 0 -3347 0 0 -3525z"/>
<path d="M8275 8124 c-1045 -1041 -1903 -1894 -1908 -1894 -5 0 -7 7 -3 15 3
8 0 14 -7 12 -7 -1 -11 4 -10 10 2 7 -2 12 -9 10 -7 -1 -12 3 -13 10 0 6 -4
15 -9 20 -5 5 -6 3 -2 -4 4 -7 3 -13 -3 -13 -5 0 -11 8 -13 18 -3 14 -5 13
-10 -6 -3 -12 -3 -20 1 -18 4 3 13 1 21 -5 10 -6 11 -9 3 -9 -7 0 -13 -4 -13
-10 0 -5 4 -9 9 -7 5 1 17 -7 25 -18 l16 -20 -6 20 c-5 16 -4 17 5 5 15 -21
14 -33 -4 -26 -10 3 -15 -1 -15 -12 0 -10 -7 -3 -17 16 -12 25 -18 30 -25 20
-6 -8 -7 -4 -2 12 6 23 5 24 -10 11 -15 -12 -17 -12 -14 0 2 8 -3 13 -10 11
-7 -1 -17 9 -24 23 -6 13 -15 22 -20 19 -4 -3 -15 11 -23 30 -15 36 -32 51
-21 19 5 -15 4 -15 -9 1 -8 11 -15 24 -15 29 0 4 -5 5 -11 2 -6 -4 -13 2 -16
14 -3 11 -9 19 -13 16 -12 -7 -53 43 -56 67 -4 41 -6 43 -14 18 l-8 -25 -1 24
c-1 21 -3 22 -18 10 -16 -13 -17 -12 -5 3 8 10 9 19 3 22 -5 3 -11 3 -14 -1
-2 -5 -2 -3 -1 4 4 14 -12 27 -19 16 -2 -5 -2 -3 -1 4 2 7 -1 15 -6 18 -6 4
-10 0 -10 -7 -1 -7 -9 2 -19 21 -13 24 -20 30 -25 20 -3 -8 -3 -3 1 11 5 22 4
24 -11 11 -15 -12 -17 -12 -14 0 2 8 -3 13 -10 11 -7 -1 -17 9 -24 23 -6 13
-15 22 -20 19 -4 -3 -15 11 -23 30 -15 36 -32 51 -21 19 5 -15 4 -15 -9 1 -8
11 -15 24 -15 29 0 4 -5 5 -11 2 -6 -4 -13 2 -16 14 -3 11 -9 19 -13 16 -12
-7 -53 43 -56 67 -4 41 -6 43 -14 18 l-8 -25 -1 24 c-1 21 -3 22 -18 10 -16
-13 -17 -12 -5 3 8 10 9 19 3 22 -5 3 -11 3 -14 -1 -2 -5 -2 -3 -1 4 4 14 -12
27 -19 16 -2 -5 -2 -3 -1 4 2 7 -1 15 -6 18 -6 4 -10 0 -10 -7 -1 -7 -9 2 -19
21 -13 24 -20 30 -25 20 -3 -8 -3 -3 1 11 5 22 4 24 -11 11 -15 -12 -17 -12
-14 0 2 8 -3 13 -10 11 -7 -1 -17 9 -24 23 -6 13 -15 22 -20 19 -4 -3 -15 11
-23 30 -15 36 -32 51 -21 19 5 -15 4 -15 -9 1 -8 11 -15 24 -15 29 0 4 -5 5
-11 2 -6 -4 -13 2 -16 14 -3 11 -9 19 -13 16 -12 -7 -53 43 -56 67 -4 41 -6
43 -14 18 l-8 -25 -1 24 c-1 21 -3 22 -18 10 -16 -13 -17 -12 -5 3 8 10 9 19
3 22 -5 3 -11 3 -14 -1 -2 -5 -2 -3 -1 4 4 14 -12 27 -19 16 -2 -5 -2 -3 -1 4
2 7 -1 15 -6 18 -6 4 -10 0 -10 -7 -1 -7 -9 2 -19 21 -13 24 -20 30 -25 20 -3
-8 -3 -3 1 11 5 22 4 24 -11 11 -15 -12 -17 -12 -14 0 2 8 -3 13 -10 11 -7 -1
-17 9 -24 23 -6 13 -15 22 -20 19 -4 -3 -15 11 -23 30 -15 36 -32 51 -21 19 5
-15 4 -15 -9 1 -8 11 -15 24 -15 29 0 4 -5 5 -11 2 -6 -4 -13 2 -16 14 -3 11
-9 19 -13 16 -12 -7 -53 43 -56 67 -4 41 -6 43 -14 18 l-8 -25 -1 24 c-1 21
-3 22 -18 10 -16 -13 -17 -12 -5 3 8 10 9 19 3 22 -5 3 -11 3 -14 -1 -2 -5 -2
-3 -1 4 4 14 -12 27 -19 16 -2 -5 -2 -3 -1 4 2 7 -1 15 -6 18 -6 4 -10 0 -10
-7 -1 -7 -9 2 -19 21 -13 24 -20 30 -25 20 -3 -8 -3 -3 1 11 5 22 4 24 -11 11
-15 -12 -17 -12 -14 0 2 8 -3 13 -10 11 -7 -1 -17 9 -24 23 -6 13 -15 22 -20
19 -4 -3 -15 11 -23 30 -15 36 -32 51 -21 19 5 -15 4 -15 -9 1 -8 11 -15 24
-15 29 0 4 -5 5 -11 2 -6 -4 -13 2 -16 14 -3 11 -9 19 -13 16 -12 -7 -53 43
-56 67 -4 41 -6 43 -14 18 l-8 -25 -1 24 c-1 21 -3 22 -18 10 -16 -13 -17 -12
-5 3 8 10 9 19 3 22 -5 3 -11 3 -14 -1 -2 -5 -2 -3 -1 4 4 14 -12 27 -19 16
-2 -5 -2 -3 -1 4 2 7 -1 15 -6 18 -6 4 -10 0 -10 -7 -1 -7 -9 2 -19 21 -13 24
-20 30 -25 20 -3 -8 -3 -3 1 11 5 22 4 24 -11 11 -15 -12 -17 -12 -14 0 2 8
-3 13 -10 11 -7 -1 -17 9 -24 23 -6 13 -15 22 -20 19 -4 -3 -15 11 -23 30 -15
36 -32 51 -21 19 5 -15 4 -15 -9 1 -8 11 -15 24 -15 29 0 4 -5 5 -11 2 -6 -4
-13 2 -16 14 -3 11 -9 19 -13 16 -12 -7 -53 43 -56 67 -4 41 -6 43 -14 18 l-8
-25 -1 24 c-1 21 -3 22 -18 10 -16 -13 -17 -12 -5 3 8 10 9 19 3 22 -5 3 -11
3 -14 -1 -2 -5 -2 -3 -1 4 4 14 -12 27 -19 16 -2 -5 -2 -3 -1 4 2 7 -1 15 -6
18 -6 4 -10 0 -10 -7 -1 -7 -9 2 -19 21 -13 24 -20 30 -25 20 -3 -8 -3 -3 1
11 5 22 4 24 -11 11 -15 -12 -17 -12 -14 0 2 8 -3 13 -10 11 -7 -1 -17 9 -24
23 -6 13 -15 22 -20 19 -4 -3 -15 11 -23 30 -15 36 -32 51 -21 19 5 -15 4 -15
-9 1 -8 11 -15 24 -15 29 0 4 -5 5 -11 2 -6 -4 -13 2 -16 14 -3 11 -9 19 -13
16 -12 -7 -53 43 -56 67 -4 41 -6 43 -14 18 l-8 -25 -1 24 c-1 21 -3 22 -18
10 -16 -13 -17 -12 -5 3 8 10 9 19 3 22 -5 3 -11 3 -14 -1 -2 -5 -2 -3 -1 4 2
6 -5 17 -13 25 -15 11 -16 11 -9 -7 5 -15 4 -17 -4 -9 -6 6 -13 20 -15 30 -2
11 -4 21 -4 24 -1 3 -6 -2 -12 -10 -9 -13 -10 -13 -6 0 2 8 0 25 -4 37 -5 13
-4 25 2 28 5 4 9 3 8 -2 -1 -4 -1 -17 1 -28 l1 -20 10 20 c9 18 9 18 5 -3 -3
-13 -2 -21 1 -18 10 9 33 -15 26 -27 -4 -6 -1 -7 7 -2 9 5 11 4 6 -4 -5 -7 -2
-10 6 -9 7 2 12 -3 10 -10 -1 -8 2 -11 7 -8 5 4 18 -5 29 -19 11 -14 22 -21
24 -17 1 5 12 0 23 -10 16 -16 17 -18 2 -13 -10 4 -17 2 -17 -5 0 -6 4 -9 9
-6 12 8 34 -20 27 -33 -4 -5 -2 -12 4 -16 6 -3 10 4 11 17 1 23 1 23 8 -2 l7
-25 6 27 c3 17 1 26 -6 25 -6 -1 -10 4 -9 10 2 7 -3 12 -10 10 -6 -1 -11 4
-10 10 2 7 -3 12 -10 10 -6 -1 -11 4 -10 10 2 7 -3 12 -10 10 -6 -1 -11 4 -10
10 2 7 -3 12 -10 10 -6 -1 -11 4 -10 10 2 7 -3 12 -10 10 -6 -1 -11 5 -9 13 2
8 0 12 -4 8 -10 -11 -35 12 -27 25 3 6 1 7 -5 3 -7 -4 -12 -1 -12 6 0 10 -3 9
-11 -2 -9 -12 -10 -11 -6 7 3 14 0 21 -7 20 -6 -1 -10 4 -8 11 1 6 -4 11 -10
10 -7 -2 -11 4 -10 12 2 8 0 12 -4 8 -10 -11 -35 12 -27 25 3 6 1 7 -5 3 -7
-4 -12 -1 -12 6 0 10 -3 9 -11 -2 -9 -12 -10 -11 -6 7 3 14 0 21 -7 20 -6 -1
-10 4 -8 11 1 6 -4 11 -10 10 -7 -2 -12 3 -10 10 1 6 -4 11 -10 10 -7 -2 -12
2 -11 8 1 6 -4 11 -11 11 -14 0 -15 -34 -3 -55 5 -7 13 -10 18 -7 5 3 6 -2 3
-12 -5 -15 -4 -16 6 -3 9 12 10 11 5 -9 -5 -16 -4 -21 4 -17 6 4 11 15 11 24
0 10 8 3 17 -16 9 -18 19 -29 22 -24 3 6 12 3 21 -6 13 -14 12 -15 -5 -9 -17
6 -18 5 -5 -5 8 -7 16 -26 17 -43 2 -25 1 -27 -7 -10 -5 11 -9 16 -9 11 -1
-14 -41 26 -41 41 0 8 -4 11 -10 8 -6 -4 -7 1 -3 12 6 16 5 16 -11 4 -9 -8
-16 -10 -15 -5 3 20 -2 35 -10 29 -22 -13 -29 42 -31 235 0 112 -3 206 -5 209
-3 2 -5 -1373 -5 -3057 l0 -3062 6672 0 c3669 0 6669 2 6667 4 -2 2 -94 96
-203 208 -110 112 -535 541 -945 953 -1922 1934 -2350 2364 -3692 3715 -790
795 -1516 1527 -1614 1628 -98 100 -181 182 -184 181 -3 0 -861 -853 -1906
-1895z"/>
<path d="M3868 8721 c-4 -13 -11 -20 -17 -16 -6 3 -11 -1 -11 -10 0 -9 5 -13
10 -10 6 3 13 -1 16 -10 5 -12 9 -13 14 -5 4 7 16 -5 29 -32 19 -37 21 -39 17
-13 -4 23 0 19 18 -20 14 -27 25 -46 25 -41 1 5 7 3 14 -3 8 -6 17 -8 20 -5 3
4 14 -10 23 -29 10 -20 20 -34 24 -32 4 2 22 -11 40 -30 18 -19 37 -32 41 -29
10 6 20 -12 24 -42 3 -29 33 -66 47 -58 5 3 12 -3 15 -15 3 -11 9 -18 14 -15
5 3 12 -2 15 -11 5 -12 9 -13 14 -5 4 7 16 -5 29 -32 19 -37 21 -39 17 -13 -4
23 0 19 18 -20 14 -27 25 -46 25 -41 1 5 7 3 14 -3 8 -6 17 -8 20 -5 3 4 14
-10 23 -29 10 -20 20 -34 24 -32 4 2 22 -11 40 -30 18 -19 37 -32 41 -29 10 6
20 -12 24 -42 3 -29 33 -66 47 -58 5 3 12 -3 15 -15 3 -11 9 -18 14 -15 5 3
12 -2 15 -11 5 -12 9 -13 14 -5 4 7 16 -5 29 -32 19 -37 21 -39 17 -13 -4 23
0 19 18 -20 14 -27 25 -46 25 -41 1 5 7 3 14 -3 8 -6 17 -8 20 -5 3 4 14 -10
23 -29 10 -20 20 -34 24 -32 4 2 22 -11 40 -30 18 -19 37 -32 41 -29 10 6 20
-12 24 -42 3 -29 33 -66 47 -58 5 3 12 -3 15 -15 3 -11 9 -18 14 -15 5 3 12
-2 15 -11 5 -12 9 -13 14 -5 4 7 16 -5 29 -32 19 -37 21 -39 17 -13 -4 23 0
19 18 -20 14 -27 25 -46 25 -41 1 5 7 3 14 -3 8 -6 17 -8 20 -5 3 4 14 -10 23
-29 10 -20 20 -34 24 -32 4 2 22 -11 40 -30 18 -19 37 -32 41 -29 10 6 20 -12
24 -42 3 -29 33 -66 47 -58 5 3 12 -3 15 -15 3 -11 9 -18 14 -15 5 3 12 -2 15
-11 5 -12 9 -13 14 -5 4 7 16 -5 29 -32 19 -37 21 -39 17 -13 -4 23 0 19 18
-20 14 -27 25 -46 25 -41 1 5 7 3 14 -3 8 -6 17 -8 20 -5 3 4 14 -10 23 -29
10 -20 20 -34 24 -32 4 2 22 -11 40 -30 18 -19 37 -32 41 -29 10 6 20 -12 24
-42 3 -29 33 -66 47 -58 5 3 12 -3 15 -15 3 -11 9 -18 14 -15 5 3 12 -2 15
-11 5 -12 9 -13 14 -5 4 7 16 -5 29 -32 19 -37 21 -39 17 -13 -4 23 0 19 18
-20 14 -27 25 -46 25 -41 1 5 7 3 14 -3 8 -6 17 -8 20 -5 3 4 14 -10 23 -29
10 -20 20 -34 24 -32 4 2 22 -11 40 -30 18 -19 37 -32 41 -29 10 6 20 -12 24
-42 3 -29 33 -66 47 -58 5 3 12 -3 15 -15 3 -11 9 -18 14 -15 5 3 12 -2 15
-11 5 -12 9 -13 14 -5 4 7 16 -5 29 -32 19 -37 21 -39 17 -13 -4 23 0 19 18
-20 14 -27 25 -46 25 -41 1 5 9 2 19 -5 9 -7 14 -10 10 -5 -3 4 -2 21 2 36 6
21 5 29 -3 27 -7 -1 -11 4 -9 11 1 8 -2 11 -7 8 -12 -8 -33 18 -23 29 4 5 1 5
-5 1 -8 -4 -13 -2 -13 6 0 10 -3 9 -11 -2 -9 -12 -10 -11 -6 7 3 13 0 21 -6
20 -6 -1 -11 3 -12 10 0 6 -4 15 -9 20 -5 5 -6 3 -2 -4 4 -7 2 -13 -3 -13 -6
0 -11 8 -12 18 0 14 -2 14 -8 -3 -5 -11 -6 -24 -3 -29 3 -5 0 -6 -6 -2 -7 4
-8 17 -2 36 6 21 5 29 -3 27 -7 -1 -11 4 -9 11 1 6 -4 11 -10 10 -7 -2 -12 3
-10 10 1 6 -4 11 -10 10 -7 -2 -12 3 -10 10 1 6 -4 11 -10 10 -7 -2 -12 3 -10
10 1 6 -4 11 -10 10 -7 -2 -12 3 -10 10 1 8 -2 11 -7 8 -12 -8 -33 18 -23 29
4 5 1 5 -5 1 -8 -4 -13 -2 -13 6 0 10 -3 9 -11 -2 -9 -12 -10 -11 -6 7 3 14 0
21 -7 20 -6 -1 -10 4 -8 11 1 6 -3 11 -10 10 -7 -2 -12 2 -13 9 0 6 -4 15 -9
20 -5 5 -6 3 -2 -4 4 -7 2 -13 -3 -13 -6 0 -11 8 -12 18 0 15 -2 14 -10 -3 -8
-17 -9 -16 -6 7 3 16 0 26 -7 25 -6 -1 -10 4 -8 11 1 8 -2 11 -7 8 -12 -8 -33
18 -23 29 4 5 1 5 -5 1 -8 -4 -13 -2 -13 6 0 10 -3 9 -11 -2 -9 -12 -10 -11
-6 7 3 13 0 21 -6 20 -6 -1 -11 3 -12 10 0 6 -4 15 -9 20 -5 5 -6 3 -2 -4 4
-7 2 -13 -3 -13 -6 0 -11 8 -12 18 0 14 -2 14 -8 -3 -5 -11 -6 -24 -3 -29 3
-5 0 -6 -6 -2 -7 4 -8 17 -2 36 6 21 5 29 -3 27 -7 -1 -11 4 -9 11 1 6 -4 11
-10 10 -7 -2 -12 3 -10 10 1 6 -4 11 -10 10 -7 -2 -12 3 -10 10 1 6 -4 11 -10
10 -7 -2 -12 3 -10 10 1 6 -4 11 -10 10 -7 -2 -12 3 -10 10 1 8 -2 11 -7 8
-12 -8 -33 18 -23 29 4 5 1 5 -5 1 -8 -4 -13 -2 -13 6 0 10 -3 9 -11 -2 -9
-12 -10 -11 -6 7 3 14 0 21 -7 20 -6 -1 -10 4 -8 11 1 6 -3 11 -10 10 -7 -2
-12 2 -13 9 0 6 -4 15 -9 20 -5 5 -6 3 -2 -4 4 -7 2 -13 -3 -13 -6 0 -11 8
-12 18 0 15 -2 14 -10 -3 -8 -17 -9 -16 -6 7 3 16 0 26 -7 25 -6 -1 -10 4 -8
11 1 8 -2 11 -7 8 -12 -8 -33 18 -23 29 4 5 1 5 -5 1 -8 -4 -13 -2 -13 6 0 10
-3 9 -11 -2 -9 -12 -10 -11 -6 7 3 13 0 21 -6 20 -6 -1 -11 3 -12 10 0 6 -4
15 -9 20 -5 5 -6 3 -2 -4 4 -7 2 -13 -3 -13 -6 0 -11 8 -12 18 0 14 -2 14 -8
-3 -5 -11 -6 -24 -3 -29 3 -5 0 -6 -6 -2 -7 4 -8 17 -2 36 6 21 5 29 -3 27 -7
-1 -11 4 -9 11 1 6 -4 11 -10 10 -7 -2 -12 3 -10 10 1 6 -4 11 -10 10 -7 -2
-12 3 -10 10 1 6 -4 11 -10 10 -7 -2 -12 3 -10 10 1 6 -4 11 -10 10 -7 -2 -12
3 -10 10 1 8 -2 11 -7 8 -12 -8 -33 18 -23 29 4 5 1 5 -5 1 -8 -4 -13 -2 -13
6 0 10 -3 9 -11 -2 -9 -12 -10 -11 -6 7 3 14 0 21 -7 20 -6 -1 -10 4 -8 11 1
6 -3 11 -10 10 -7 -2 -12 2 -13 9 0 6 -4 15 -9 20 -5 5 -6 3 -2 -4 4 -7 2 -13
-3 -13 -6 0 -11 8 -12 18 0 15 -2 14 -10 -3 -8 -17 -9 -16 -6 7 3 16 0 26 -7
25 -6 -1 -10 4 -8 11 1 8 -2 11 -7 8 -12 -8 -33 18 -23 29 4 5 1 5 -5 1 -8 -4
-13 -2 -13 6 0 10 -3 9 -11 -2 -9 -12 -10 -11 -6 7 3 13 0 21 -6 20 -6 -1 -11
3 -12 10 0 6 -4 15 -9 20 -5 5 -6 3 -2 -4 4 -7 2 -13 -3 -13 -6 0 -11 8 -12
18 0 14 -2 14 -8 -3 -5 -11 -6 -24 -3 -29 3 -5 0 -6 -6 -2 -7 4 -8 17 -2 36 6
21 5 29 -3 27 -7 -1 -11 4 -10 10 2 7 -3 12 -10 10 -6 -1 -11 4 -10 10 2 7 -3
12 -10 10 -6 -1 -11 4 -10 10 2 7 -3 12 -10 10 -6 -1 -11 4 -10 10 2 7 -3 12
-10 10 -6 -1 -11 4 -9 11 1 8 -2 11 -7 8 -12 -8 -33 18 -23 29 4 5 1 5 -5 1
-8 -4 -13 -2 -13 6 0 10 -3 9 -11 -2 -9 -12 -10 -11 -6 7 3 14 0 21 -7 20 -6
-1 -10 4 -9 10 2 7 -2 12 -9 10 -7 -1 -12 3 -13 10 0 6 -4 15 -9 20 -5 5 -6 3
-2 -4 4 -7 2 -13 -3 -13 -6 0 -11 8 -12 18 0 15 -2 14 -10 -3 -8 -17 -9 -16
-6 7 3 16 0 26 -7 25 -6 -1 -10 4 -8 11 1 8 -2 11 -7 8 -12 -8 -33 18 -23 29
4 5 1 5 -5 1 -8 -4 -13 -2 -13 6 0 10 -3 9 -11 -2 -9 -12 -10 -11 -6 7 3 13 0
21 -6 20 -6 -1 -11 3 -12 10 0 6 -4 15 -9 20 -5 5 -6 3 -2 -4 4 -7 2 -13 -3
-13 -6 0 -11 8 -12 18 0 14 -2 14 -8 -3 -5 -11 -6 -24 -3 -29 3 -5 0 -6 -6 -2
-7 4 -8 17 -2 36 6 21 5 29 -3 27 -7 -1 -11 4 -10 10 2 7 -3 12 -10 10 -6 -1
-11 4 -10 10 2 7 -3 12 -10 10 -6 -1 -11 4 -10 10 2 7 -3 12 -10 10 -6 -1 -11
4 -10 10 2 7 -3 12 -10 10 -6 -1 -11 4 -9 11 1 8 -2 11 -7 8 -12 -8 -33 18
-23 29 4 5 1 5 -5 1 -8 -4 -13 -2 -13 6 0 10 -3 9 -11 -2 -9 -12 -10 -11 -6 7
3 14 0 21 -7 20 -6 -1 -10 4 -9 11 2 6 -2 11 -9 10 -7 -2 -12 2 -13 9 0 6 -4
15 -9 20 -5 5 -6 3 -2 -4 4 -7 2 -13 -3 -13 -6 0 -11 8 -12 18 0 15 -2 14 -10
-3 -8 -17 -9 -16 -6 7 3 16 0 26 -7 25 -6 -1 -10 4 -8 11 1 8 -2 11 -7 8 -12
-8 -33 18 -23 29 4 5 1 5 -5 1 -8 -4 -13 -2 -13 6 0 10 -3 9 -11 -2 -9 -12
-10 -11 -6 7 3 13 0 21 -6 20 -6 -1 -11 3 -12 10 0 6 -4 15 -9 20 -5 5 -6 3
-2 -4 4 -7 2 -13 -3 -13 -6 0 -11 8 -12 18 0 14 -2 14 -8 -3 -5 -11 -6 -24 -3
-29 3 -5 0 -6 -6 -2 -7 4 -8 17 -2 36 6 21 5 29 -3 27 -7 -1 -11 4 -9 11 1 6
-4 11 -10 10 -7 -2 -12 3 -10 10 1 6 -4 11 -10 10 -7 -2 -12 3 -10 10 1 6 -4
11 -10 10 -7 -2 -12 3 -10 10 1 6 -4 11 -10 10 -7 -2 -12 3 -10 10 1 8 -2 11
-7 8 -12 -8 -33 18 -23 29 4 5 1 5 -5 1 -8 -4 -13 -2 -13 6 0 10 -3 9 -11 -2
-9 -12 -10 -11 -6 7 3 14 0 21 -7 20 -6 -1 -10 4 -8 11 1 6 -3 11 -10 10 -7
-2 -12 2 -13 9 0 6 -4 15 -9 20 -5 5 -6 3 -2 -4 4 -7 2 -13 -3 -13 -6 0 -11 8
-12 18 0 15 -2 14 -10 -3 -8 -17 -9 -16 -6 7 3 16 0 26 -7 25 -6 -1 -10 4 -8
11 1 8 -2 11 -7 8 -12 -8 -33 18 -23 29 4 5 1 5 -5 1 -8 -4 -13 -2 -13 6 0 10
-3 9 -11 -2 -9 -12 -10 -11 -6 7 3 13 0 21 -6 20 -6 -1 -11 3 -12 10 0 6 -4
15 -9 20 -5 5 -6 3 -2 -4 4 -7 3 -13 -3 -13 -5 0 -11 8 -13 18 -3 13 -5 12
-10 -7z"/>
</g>
</svg>
